Coordinates
version=1
nRows=29
nColumns=24
inDegrees=yes

Units are S.I. units (second, meters, Newtons, ...)
If the header above contains a line with 'inDegrees', this indicates whether rotational values are in degrees (yes) or radians (no).

endheader
time	pelvis_tilt	pelvis_list	pelvis_rotation	pelvis_tx	pelvis_ty	pelvis_tz	hip_flexion_r	hip_adduction_r	hip_rotation_r	knee_angle_r	ankle_angle_r	subtalar_angle_r	mtp_angle_r	hip_flexion_l	hip_adduction_l	hip_rotation_l	knee_angle_l	ankle_angle_l	subtalar_angle_l	mtp_angle_l	lumbar_extension	lumbar_bending	lumbar_rotation
      6.11000000	     -1.99943043	      0.11463225	    -90.72150004	     -0.03941246	      0.94963416	     -0.62254182	     -2.78981314	      3.08499538	     -7.77209499	    -14.50820268	     25.63836054	     11.20564856	      0.00000000	     18.81320108	     -7.81245230	    -19.77217628	      1.46269586	      6.76688242	     10.47163239	      0.00000000	      0.00000000	      0.00000000	      0.00000000
      6.12000000	     -1.77992156	      0.32552935	    -91.02611161	     -0.03778956	      0.94958325	     -0.61789630	     -2.86836811	      2.64168128	     -7.77602725	    -14.47998191	     25.73473378	     11.71414195	      0.00000000	     18.71616682	     -7.54233352	    -19.52794695	      1.51738185	      6.15261836	      9.65324361	      0.00000000	      0.00000000	      0.00000000	      0.00000000
      6.13000000	     -1.54466732	      0.50856091	    -91.29745253	     -0.03610332	      0.94966519	     -0.61321181	     -2.99169172	      2.19334443	     -7.75799679	    -14.41832642	     25.77014445	     12.11481259	      0.00000000	     18.63730509	     -7.26230104	    -19.37798644	      1.47869921	      5.62155741	      8.98135798	      0.00000000	      0.00000000	      0.00000000	      0.00000000
      6.14000000	     -1.29342174	      0.68388179	    -91.58859042	     -0.03440065	      0.94986868	     -0.60851757	     -3.12191803	      1.73351053	     -7.66680642	    -14.34320892	     25.73152562	     12.41796296	      0.00000000	     18.57561014	     -6.98545341	    -19.34751761	      1.37075815	      5.18298768	      8.47156149	      0.00000000	      0.00000000	      0.00000000	      0.00000000
      6.15000000	     -1.03055379	      0.82664115	    -91.80780629	     -0.03256352	      0.95017182	     -0.60383591	     -3.30377599	      1.26215496	     -7.66140304	    -14.23290808	     25.67393703	     12.73322853	      0.00000000	     18.53011472	     -6.68431457	    -19.30125852	      1.19251769	      4.74416070	      7.99141615	      0.00000000	      0.00000000	      0.00000000	      0.00000000
      6.16000000	     -0.73988546	      0.93479853	    -91.97763810	     -0.03057986	      0.95055101	     -0.59915691	     -3.52862329	      0.75289417	     -7.70680406	    -14.11026632	     25.60799354	     13.08220699	      0.00000000	     18.47179367	     -6.34256612	    -19.23939954	      0.97959339	      4.31060527	      7.56363099	      0.00000000	      0.00000000	      0.00000000	      0.00000000
      6.17000000	     -0.43282659	      1.03092622	    -92.14173052	     -0.02849508	      0.95096268	     -0.59449898	     -3.76026427	      0.21234783	     -7.76945626	    -13.99116395	     25.53203840	     13.46134871	      0.00000000	     18.41404522	     -5.98149396	    -19.23983648	      0.73456596	      3.93257447	      7.19003743	      0.00000000	      0.00000000	      0.00000000	      0.00000000
      6.18000000	     -0.13821875	      1.11279803	    -92.29090136	     -0.02631962	      0.95140239	     -0.58985676	     -4.00660432	     -0.32697242	     -7.87191088	    -13.86834628	     25.42815200	     13.88535677	      0.00000000	     18.34816027	     -5.62496865	    -19.29518633	      0.47739580	      3.61699278	      6.88898596	      0.00000000	      0.00000000	      0.00000000	      0.00000000
      6.19000000	      0.14864668	      1.20071570	    -92.46152186	     -0.02410790	      0.95184083	     -0.58521409	     -4.23167941	     -0.86364709	     -7.92751950	    -13.76322735	     25.30539749	     14.28313682	      0.00000000	     18.27807617	     -5.27546894	    -19.42804381	      0.23235344	      3.37864953	      6.66371191	      0.00000000	      0.00000000	      0.00000000	      0.00000000
      6.20000000	      0.41677473	      1.26663690	    -92.60423827	     -0.02176750	      0.95230981	     -0.58054169	     -4.48169868	     -1.38909013	     -8.02569116	    -13.66031239	     25.15715959	     14.69535689	      0.00000000	     18.18343180	     -4.92325158	    -19.59169583	      0.00152866	      3.16125653	      6.48472346	      0.00000000	      0.00000000	      0.00000000	      0.00000000
      6.21000000	      0.65563709	      1.36109533	    -92.74268599	     -0.01935733	      0.95274339	     -0.57587464	     -4.69366014	     -1.87998462	     -8.08472419	    -13.56512999	     24.97910686	     15.03314205	      0.00000000	     18.12244577	     -4.59326730	    -19.80246528	     -0.22657549	      2.91798469	      6.34220328	      0.00000000	      0.00000000	      0.00000000	      0.00000000
      6.22000000	      0.88330540	      1.42088508	    -92.87461502	     -0.01677833	      0.95319494	     -0.57118947	     -4.92928679	     -2.38407618	     -8.22723239	    -13.49642437	     24.77946890	     15.50317250	      0.00000000	     18.02044403	     -4.25492103	    -19.97226967	     -0.44699007	      2.74250983	      6.20492730	      0.00000000	      0.00000000	      0.00000000	      0.00000000
      6.23000000	      1.08257818	      1.56622686	    -93.05320595	     -0.01421840	      0.95353020	     -0.56657369	     -5.04138770	     -2.84452220	     -8.23687518	    -13.45536962	     24.55422262	     15.78955802	      0.00000000	     18.01458725	     -3.96070373	    -20.20583975	     -0.67020333	      2.52961721	      6.10296356	      0.00000000	      0.00000000	      0.00000000	      0.00000000
      6.24000000	      1.25482317	      1.72563540	    -93.21138430	     -0.01161103	      0.95383296	     -0.56191295	     -5.15168055	     -3.27106439	     -8.26010154	    -13.39316826	     24.29712305	     16.06328543	      0.00000000	     18.02429380	     -3.68421525	    -20.41046085	     -0.87931568	      2.29233499	      6.04639710	      0.00000000	      0.00000000	      0.00000000	      0.00000000
      6.25000000	      1.42921277	      1.86574948	    -93.38511088	     -0.00896927	      0.95413365	     -0.55722425	     -5.26859768	     -3.70780782	     -8.25085563	    -13.35505761	     24.02493268	     16.33637586	      0.00000000	     18.00783019	     -3.39930795	    -20.58857545	     -1.07686407	      2.07050033	      5.97121386	      0.00000000	      0.00000000	      0.00000000	      0.00000000
      6.26000000	      1.61169224	      1.97968951	    -93.55665190	     -0.00629767	      0.95444735	     -0.55249715	     -5.40613869	     -4.15757323	     -8.23411425	    -13.33075788	     23.74058184	     16.60075690	      0.00000000	     17.96316090	     -3.09666515	    -20.74525985	     -1.27230585	      1.83363259	      5.83242167	      0.00000000	      0.00000000	      0.00000000	      0.00000000
      6.27000000	      1.80666801	      2.08531104	    -93.71724724	     -0.00359468	      0.95475931	     -0.54772197	     -5.55218802	     -4.62290159	     -8.21782100	    -13.30604348	     23.44844827	     16.85820490	      0.00000000	     17.90903085	     -2.77531405	    -20.89499162	     -1.46453986	      1.56336842	      5.63420584	      0.00000000	      0.00000000	      0.00000000	      0.00000000
      6.28000000	      2.01823821	      2.17929922	    -93.86604243	     -0.00085121	      0.95506335	     -0.54288377	     -5.70977746	     -5.11274969	     -8.21295241	    -13.28598565	     23.16297274	     17.14487562	      0.00000000	     17.83810201	     -2.43396215	    -21.05183303	     -1.65341058	      1.31825150	      5.40373448	      0.00000000	      0.00000000	      0.00000000	      0.00000000
      6.29000000	      2.24965821	      2.25325433	    -94.01131306	      0.00194978	      0.95538774	     -0.53798512	     -5.88012474	     -5.63460919	     -8.21307238	    -13.28559354	     22.87424242	     17.45404372	      0.00000000	     17.72691877	     -2.06576468	    -21.23931451	     -1.81470407	      1.09785819	      5.19509808	      0.00000000	      0.00000000	      0.00000000	      0.00000000
      6.30000000	      2.48409869	      2.31631565	    -94.14213277	      0.00480026	      0.95573329	     -0.53302831	     -6.06493091	     -6.16465048	     -8.22740620	    -13.28787812	     22.56862035	     17.77420456	      0.00000000	     17.58484466	     -1.68476301	    -21.47527040	     -1.94613239	      0.91606159	      5.05804068	      0.00000000	      0.00000000	      0.00000000	      0.00000000
      6.31000000	      2.70818178	      2.31073549	    -94.22273910	      0.00775820	      0.95618751	     -0.52798407	     -6.34439421	     -6.70009437	     -8.37956994	    -13.27915681	     22.21762628	     18.22499990	      0.00000000	     17.34375055	     -1.28498964	    -21.71473024	     -2.03204437	      0.77668904	      5.01802690	      0.00000000	      0.00000000	      0.00000000	      0.00000000
      6.32000000	      2.93698777	      2.32846283	    -94.32498657	      0.01072088	      0.95664349	     -0.52289069	     -6.58710672	     -7.24374391	     -8.52258217	    -13.28160113	     21.85049886	     18.65710862	      0.00000000	     17.10036976	     -0.87961469	    -22.00095929	     -2.08030637	      0.65708964	      5.01000550	      0.00000000	      0.00000000	      0.00000000	      0.00000000
      6.33000000	      3.16854998	      2.37623910	    -94.46705258	      0.01373141	      0.95710243	     -0.51777805	     -6.76724260	     -7.79791562	     -8.63288308	    -13.31326912	     21.45824857	     19.05852510	      0.00000000	     16.85997777	     -0.46818794	    -22.29761304	     -2.08524271	      0.55373895	      4.98338559	      0.00000000	      0.00000000	      0.00000000	      0.00000000
      6.34000000	      3.38996446	      2.32781583	    -94.53809198	      0.01689717	      0.95771696	     -0.51253730	     -7.07833388	     -8.35174961	     -8.91686884	    -13.33010576	     20.99780029	     19.55364669	      0.00000000	     16.48337923	     -0.02106571	    -22.47384346	     -2.03200083	      0.49221646	      4.97870581	      0.00000000	      0.00000000	      0.00000000	      0.00000000
      6.35000000	      3.62040481	      2.32666050	    -94.66103086	      0.02010985	      0.95829528	     -0.50728333	     -7.29343073	     -8.92309882	     -9.11896185	    -13.39766566	     20.52597637	     20.00856476	      0.00000000	     16.12405976	      0.44114286	    -22.63450634	     -1.92329324	      0.43965005	      4.92780141	      0.00000000	      0.00000000	      0.00000000	      0.00000000
      6.36000000	      3.84205642	      2.33984705	    -94.79459517	      0.02335484	      0.95886195	     -0.50203011	     -7.46017495	     -9.49298573	     -9.31805466	    -13.51482998	     20.02200524	     20.46252621	      0.00000000	     15.75603397	      0.90707906	    -22.76630302	     -1.76758906	      0.39962522	      4.86907123	      0.00000000	      0.00000000	      0.00000000	      0.00000000
      6.37000000	      4.05549908	      2.42314443	    -94.97562976	      0.02657140	      0.95933673	     -0.49681139	     -7.49405136	    -10.05415399	     -9.40090736	    -13.70212364	     19.49561816	     20.82882549	      0.00000000	     15.44513316	      1.35788515	    -22.89987417	     -1.57903784	      0.35965186	      4.78890666	      0.00000000	      0.00000000	      0.00000000	      0.00000000
      6.38000000	      4.26203682	      2.42941101	    -95.06534304	      0.02990559	      0.95986131	     -0.49150520	     -7.62861428	    -10.61702160	     -9.67254713	    -13.90874894	     18.95042848	     21.29060882	      0.00000000	     15.04497419	      1.83944809	    -22.92443759	     -1.37539771	      0.35235273	      4.70922003	      0.00000000	      0.00000000	      0.00000000	      0.00000000
      6.39000000	      4.46442215	      2.52208049	    -95.21340170	      0.03320877	      0.96026446	     -0.48622626	     -7.59955838	    -11.17206900	     -9.76607539	    -14.20041189	     18.39809465	     21.63471483	      0.00000000	     14.73675369	      2.29805704	    -22.97581618	     -1.17601604	      0.34615186	      4.61165150	      0.00000000	      0.00000000	      0.00000000	      0.00000000
